# xmcd
#
# Track frame offsets:
#	150
#	14735
#	29889
#	42230
#	59778
#	73794
#	90069
#	103423
#	116100
#	131537
#	149376
#	164959
#	184916
#	201504
#	216642
#	229716
#	241036
#
# Disc length: 3406 seconds
#
# Revision: 1
# Processed by: cddbd v1.4PL0 Copyright (c) Steve Scherf et al.
# Submitted via: audiograbber 1.82.01
#
DISCID=160d4c11
DTITLE=Kiwi Roughriders - Kiwi Roughriders
DYEAR=2002
DGENRE=Country
TTITLE0=Noel Parlane - Ridin' In The Rodeo
TTITLE1=Grenville Craig - Cowboy Tradition
TTITLE2=Reg McTaggart - My Rifle, My Pony And Me
TTITLE3=The Coalrangers - Cowboys And Angels
TTITLE4=Wendy Hutton - I Wan't To Be A Cowboy's Sweetheart
TTITLE5=Grenville Craig - National Finals, Rodeo
TTITLE6=Ernie Andrew - Leave Him In The Longyard
TTITLE7=Ernie Andrew - Cowboy Rides Away
TTITLE8=Joy Adams - He Told Me So
TTITLE9=Neil Hersey - Empty Saddles
TTITLE10=Neil Hersey - Devil's Oly Friend
TTITLE11=Rosy Parsons - Kiwi Cowboy
TTITLE12=John Grenell - Good Old Kiwi Stockhorse
TTITLE13=The Coalrangers - Dance, Cowboy
TTITLE14=Marilyn Smillie - Bandy The Rodeo Clown
TTITLE15=Noel Burns - Modern-Day Cowboy
TTITLE16=Neil Hersey - Ponies Of The Wind
EXTD=
EXTT0=
EXTT1=
EXTT2=
EXTT3=
EXTT4=
EXTT5=
EXTT6=
EXTT7=
EXTT8=
EXTT9=
EXTT10=
EXTT11=
EXTT12=
EXTT13=
EXTT14=
EXTT15=
EXTT16=
PLAYORDER=
